# Blender v2.90.1 OBJ File: ''
# www.blender.org
mtllib L2l.mtl
o Spiders.003
v -1.951000 2.300000 0.928000
v -1.888000 2.344000 0.970000
v -1.838000 2.383000 0.935000
v -1.833000 2.380000 0.873000
v -1.909000 2.314000 0.831000
v -1.295000 0.229000 1.065000
v -1.254000 0.252000 1.088000
v -1.222000 0.269000 1.059000
v -1.230000 0.263000 1.018000
v -1.277000 0.235000 1.009000
v -1.264000 0.191000 1.063000
v -1.231000 0.209000 1.081000
v -1.213000 0.222000 1.053000
v -1.220000 0.218000 1.037000
v -1.248000 0.200000 1.026000
v -1.202000 0.203000 1.057000
v -1.200000 0.187000 1.027000
v -1.226000 0.172000 1.093000
v -1.228000 0.147000 1.026000
v -1.238000 0.136000 1.066000
v -0.930000 -0.004000 1.110000
vt 0.651900 0.940200
vt 0.935200 0.928300
vt 0.650900 0.929100
vt 0.934800 0.923600
vt 0.649900 0.919400
vt 0.649700 0.912400
vt 0.934900 0.919000
vt 0.935400 0.941100
vt 0.935200 0.934400
vt 0.935800 0.947900
vt 0.652200 0.953600
vt 0.650200 0.969000
vt 0.941700 0.934200
vt 0.940900 0.922800
vt 0.940700 0.920100
vt 0.942100 0.940500
vt 0.943000 0.945700
vt 0.947600 0.922800
vt 0.941500 0.928100
vt 0.952200 0.944800
vt 0.949500 0.938600
vt 0.947800 0.928700
vt 0.948800 0.933800
vt 0.992600 0.922800
vt 0.948200 0.919000
vn -0.9035 -0.3079 0.2981
vn 0.1466 -0.0145 0.9891
vn 0.0801 0.0551 0.9953
vn 0.9389 0.1746 0.2966
vn 0.8288 0.2141 0.5170
vn 0.9047 0.2019 -0.3752
vn 0.6534 -0.0082 -0.7570
vn -0.4451 -0.4330 -0.7839
vn -0.8210 -0.4440 0.3588
vn -0.1602 -0.1812 -0.9703
vn -0.8664 -0.4357 0.2440
vn 0.9157 0.4010 -0.0265
vn 0.6809 0.2811 -0.6763
vn -0.2470 -0.2986 -0.9219
vn 0.7021 0.6672 0.2489
vn 0.3193 0.0884 0.9435
vn 0.4137 0.3510 -0.8400
vn -0.3725 -0.5030 -0.7799
vn -0.1899 0.0589 0.9800
vn -0.6989 -0.6882 0.1948
vn 0.8483 -0.5046 0.1605
usemtl wire_143224087
s 1
f 1/1/1 7/2/2 2/3/3
f 2/3/3 8/4/4 3/5/5
f 4/6/6 8/4/4 9/7/7
f 1/1/1 10/8/8 6/9/9
f 9/10/7 5/11/10 4/12/6
f 11/13/11 7/2/2 6/9/9
f 7/2/2 13/14/12 8/4/4
f 8/4/4 14/15/13 9/7/7
f 15/16/14 6/9/9 10/8/8
f 15/16/14 9/10/7 14/17/13
f 16/18/15 14/15/13 13/14/12
f 12/19/16 16/18/15 13/14/12
f 15/16/14 17/20/17 19/21/18
f 11/13/11 18/22/19 12/19/16
f 19/21/18 11/13/11 15/16/14
f 20/23/20 21/24/21 18/22/19
f 21/24/21 20/23/20 19/21/18
f 18/22/19 21/24/21 16/18/15
f 21/24/21 17/25/17 16/18/15
f 21/24/21 19/21/18 17/20/17
f 1/1/1 6/9/9 7/2/2
f 2/3/3 7/2/2 8/4/4
f 4/6/6 3/5/5 8/4/4
f 1/1/1 5/11/10 10/8/8
f 9/10/7 10/8/8 5/11/10
f 11/13/11 12/19/16 7/2/2
f 7/2/2 12/19/16 13/14/12
f 8/4/4 13/14/12 14/15/13
f 15/16/14 11/13/11 6/9/9
f 15/16/14 10/8/8 9/10/7
f 16/18/15 17/25/17 14/15/13
f 12/19/16 18/22/19 16/18/15
f 15/16/14 14/17/13 17/20/17
f 11/13/11 20/23/20 18/22/19
f 19/21/18 20/23/20 11/13/11
