# Blender v2.90.1 OBJ File: ''
# www.blender.org
mtllib L2u.mtl
o Spiders.004
v -4.900000 0.855000 0.327000
v -4.993000 0.890000 0.397000
v -5.092000 0.938000 0.302000
v -5.055000 0.928000 0.197000
v -4.923000 0.886000 0.184000
v -4.055000 2.739000 0.515000
v -4.130000 2.761000 0.560000
v -4.201000 2.808000 0.483000
v -4.165000 2.799000 0.397000
v -4.090000 2.757000 0.390000
v -4.095000 2.756000 0.505000
v -4.104000 2.809000 0.548000
v -4.089000 2.877000 0.495000
v -4.078000 2.856000 0.434000
v -4.083000 2.805000 0.412000
v -4.024000 2.740000 0.520000
v -4.037000 2.807000 0.574000
v -4.028000 2.910000 0.519000
v -4.009000 2.876000 0.413000
v -4.017000 2.795000 0.403000
v -1.969000 2.311000 0.918000
v -1.984000 2.386000 0.956000
v -1.962000 2.457000 0.892000
v -1.956000 2.444000 0.840000
v -1.948000 2.337000 0.824000
v -1.961000 2.349000 0.916000
v -1.923000 2.391000 0.961000
v -1.880000 2.407000 0.926000
v -1.878000 2.403000 0.876000
v -1.931000 2.356000 0.838000
v -1.951000 2.300000 0.928000
v -1.888000 2.344000 0.970000
v -1.838000 2.383000 0.935000
v -1.833000 2.380000 0.873000
v -1.909000 2.314000 0.831000
vt 0.067300 0.949800
vt 0.341100 0.931700
vt 0.067200 0.933500
vt 0.066700 0.915800
vt 0.341700 0.918800
vt 0.342200 0.907100
vt 0.066300 0.901800
vt 0.341300 0.958400
vt 0.342200 0.942700
vt 0.069200 0.968700
vt 0.342900 0.969200
vt 0.349800 0.942900
vt 0.349100 0.932000
vt 0.348900 0.908800
vt 0.349000 0.918800
vt 0.349000 0.958500
vt 0.358900 0.931800
vt 0.358600 0.918100
vt 0.358200 0.959600
vt 0.349200 0.966800
vt 0.360200 0.943700
vt 0.636900 0.930000
vt 0.636900 0.917800
vt 0.358100 0.905600
vt 0.637100 0.910600
vt 0.639100 0.952600
vt 0.637400 0.966800
vt 0.358500 0.970400
vt 0.645000 0.940400
vt 0.638600 0.940100
vt 0.643100 0.929600
vt 0.643600 0.913300
vt 0.645300 0.953000
vt 0.643700 0.964400
vt 0.650900 0.929100
vt 0.643500 0.921000
vt 0.649900 0.919400
vt 0.652200 0.953600
vt 0.067700 0.986800
vt 0.651900 0.940200
vt 0.649700 0.912400
vt 0.650200 0.969000
vn 0.8390 -0.4047 0.3637
vn -0.0897 0.0150 0.9959
vn -0.0761 -0.0362 0.9964
vn -0.8707 0.3980 0.2891
vn -0.7540 0.6238 0.2059
vn -0.3796 0.5421 -0.7497
vn -0.5454 0.3530 -0.7603
vn 0.6179 -0.0952 -0.7805
vn 0.8585 0.2020 0.4713
vn 0.5704 -0.1488 -0.8078
vn 0.4563 0.7225 0.5194
vn -0.2889 0.3308 0.8984
vn -0.2929 0.6843 -0.6678
vn -0.4943 0.8541 0.1616
vn 0.3182 0.0040 -0.9480
vn -0.2960 -0.0851 0.9514
vn -0.2542 0.9144 0.3149
vn -0.0631 -0.4013 -0.9138
vn -0.2804 -0.9433 0.1776
vn -0.1712 0.1249 0.9773
vn 0.2643 0.9252 0.2725
vn 0.0037 0.6645 -0.7473
vn 0.4075 0.6401 -0.6513
vn 0.4120 -0.5567 -0.7214
vn 0.9544 -0.0959 0.2826
vn 0.4703 -0.8225 0.3199
vn 0.0655 0.3778 0.9236
vn 0.4749 0.7234 -0.5012
vn 0.2097 0.9110 0.3550
vn -0.1706 0.2469 0.9539
vn 0.4164 0.8156 0.4018
vn 0.3547 0.8625 0.3609
vn -0.4582 0.0438 -0.8878
vn -0.9527 -0.0680 0.2963
vn 0.3120 0.7897 -0.5281
usemtl wire_143224087
s 1
f 1/1/1 7/2/2 2/3/3
f 3/4/4 7/2/2 8/5/5
f 3/4/4 9/6/6 4/7/7
f 1/1/1 10/8/8 6/9/9
f 5/10/10 9/11/6 10/8/8
f 11/12/11 7/2/2 6/9/9
f 12/13/12 8/5/5 7/2/2
f 14/14/13 8/5/5 13/15/14
f 11/12/11 10/8/8 15/16/15
f 9/11/6 15/16/15 10/8/8
f 11/12/11 17/17/16 12/13/12
f 17/17/16 13/15/14 12/13/12
f 18/18/17 14/14/13 13/15/14
f 20/19/18 11/12/11 15/16/15
f 14/20/13 20/19/18 15/16/15
f 16/21/19 22/22/20 17/17/16
f 17/17/16 23/23/21 18/18/17
f 19/24/22 23/23/21 24/25/23
f 25/26/24 16/21/19 20/19/18
f 24/27/23 20/19/18 19/28/22
f 26/29/25 22/22/20 21/30/26
f 27/31/27 23/23/21 22/22/20
f 23/23/21 29/32/28 24/25/23
f 25/26/24 26/29/25 21/30/26
f 30/33/29 24/27/23 29/34/28
f 26/29/25 32/35/30 27/31/27
f 32/35/30 28/36/31 27/31/27
f 33/37/32 29/32/28 28/36/31
f 35/38/33 26/29/25 30/33/29
f 29/34/28 35/38/33 30/33/29
f 1/1/1 6/9/9 7/2/2
f 3/4/4 2/3/3 7/2/2
f 3/4/4 8/5/5 9/6/6
f 1/1/1 5/10/10 10/8/8
f 5/10/10 4/39/7 9/11/6
f 11/12/11 12/13/12 7/2/2
f 12/13/12 13/15/14 8/5/5
f 14/14/13 9/6/6 8/5/5
f 11/12/11 6/9/9 10/8/8
f 9/11/6 14/20/13 15/16/15
f 11/12/11 16/21/19 17/17/16
f 17/17/16 18/18/17 13/15/14
f 18/18/17 19/24/22 14/14/13
f 20/19/18 16/21/19 11/12/11
f 14/20/13 19/28/22 20/19/18
f 16/21/19 21/30/26 22/22/20
f 17/17/16 22/22/20 23/23/21
f 19/24/22 18/18/17 23/23/21
f 25/26/24 21/30/26 16/21/19
f 24/27/23 25/26/24 20/19/18
f 26/29/25 27/31/27 22/22/20
f 27/31/27 28/36/31 23/23/21
f 23/23/21 28/36/31 29/32/28
f 25/26/24 30/33/29 26/29/25
f 30/33/29 25/26/24 24/27/23
f 26/29/25 31/40/34 32/35/30
f 32/35/30 33/37/32 28/36/31
f 33/37/32 34/41/35 29/32/28
f 35/38/33 31/40/34 26/29/25
f 29/34/28 34/42/35 35/38/33
