# Blender v2.90.1 OBJ File: ''
# www.blender.org
mtllib L3l.mtl
o Spiders.006
v -2.032000 2.297000 -0.837000
v -1.957000 2.340000 -0.825000
v -1.927000 2.379000 -0.879000
v -1.948000 2.376000 -0.937000
v -2.035000 2.310000 -0.944000
v -1.380000 0.226000 -0.990000
v -1.333000 0.248000 -0.987000
v -1.316000 0.265000 -1.027000
v -1.340000 0.260000 -1.061000
v -1.386000 0.232000 -1.048000
v -1.352000 0.188000 -1.005000
v -1.315000 0.205000 -1.003000
v -1.310000 0.218000 -1.036000
v -1.323000 0.215000 -1.048000
v -1.353000 0.196000 -1.046000
v -1.298000 0.200000 -1.037000
v -1.309000 0.183000 -1.065000
v -1.305000 0.169000 -0.994000
v -1.335000 0.143000 -1.054000
v -1.328000 0.132000 -1.013000
v -1.030000 -0.007000 -1.104000
vt 0.651900 0.940200
vt 0.935200 0.928300
vt 0.650900 0.929100
vt 0.934800 0.923600
vt 0.649900 0.919400
vt 0.649700 0.912400
vt 0.934900 0.919000
vt 0.935400 0.941100
vt 0.935200 0.934400
vt 0.935800 0.947900
vt 0.652200 0.953600
vt 0.650200 0.969000
vt 0.941700 0.934200
vt 0.940900 0.922800
vt 0.940700 0.920100
vt 0.942100 0.940500
vt 0.943000 0.945700
vt 0.947600 0.922800
vt 0.941500 0.928100
vt 0.952200 0.944800
vt 0.949500 0.938600
vt 0.947800 0.928700
vt 0.948800 0.933800
vt 0.992600 0.922800
vt 0.948200 0.919000
vn -0.6933 -0.3059 0.6525
vn 0.5507 -0.0140 0.8346
vn 0.4976 0.0527 0.8658
vn 0.9767 0.1759 -0.1232
vn 0.9697 0.2144 0.1172
vn 0.6632 0.2073 -0.7192
vn 0.2620 -0.0332 -0.9645
vn -0.7224 -0.4395 -0.5339
vn -0.5966 -0.4387 0.6721
vn -0.5549 -0.1800 -0.8122
vn -0.6717 -0.4414 0.5950
vn 0.8219 0.4084 -0.3971
vn 0.2960 0.2937 -0.9089
vn -0.6227 -0.2569 -0.7391
vn 0.7324 0.6766 -0.0763
vn 0.6658 0.0981 0.7397
vn 0.0087 0.3365 -0.9416
vn -0.6677 -0.5012 -0.5504
vn 0.2490 0.0617 0.9665
vn -0.5614 -0.6804 0.4710
vn 0.8369 -0.5044 -0.2128
usemtl wire_143224087
s 1
f 1/1/1 7/2/2 2/3/3
f 2/3/3 8/4/4 3/5/5
f 4/6/6 8/4/4 9/7/7
f 1/1/1 10/8/8 6/9/9
f 9/10/7 5/11/10 4/12/6
f 11/13/11 7/2/2 6/9/9
f 7/2/2 13/14/12 8/4/4
f 8/4/4 14/15/13 9/7/7
f 15/16/14 6/9/9 10/8/8
f 14/17/13 10/8/8 9/10/7
f 16/18/15 14/15/13 13/14/12
f 12/19/16 16/18/15 13/14/12
f 15/16/14 17/20/17 19/21/18
f 11/13/11 18/22/19 12/19/16
f 19/21/18 11/13/11 15/16/14
f 20/23/20 21/24/21 18/22/19
f 21/24/21 20/23/20 19/21/18
f 18/22/19 21/24/21 16/18/15
f 21/24/21 17/25/17 16/18/15
f 21/24/21 19/21/18 17/20/17
f 1/1/1 6/9/9 7/2/2
f 2/3/3 7/2/2 8/4/4
f 4/6/6 3/5/5 8/4/4
f 1/1/1 5/11/10 10/8/8
f 9/10/7 10/8/8 5/11/10
f 11/13/11 12/19/16 7/2/2
f 7/2/2 12/19/16 13/14/12
f 8/4/4 13/14/12 14/15/13
f 15/16/14 11/13/11 6/9/9
f 14/17/13 15/16/14 10/8/8
f 16/18/15 17/25/17 14/15/13
f 12/19/16 18/22/19 16/18/15
f 15/16/14 14/17/13 17/20/17
f 11/13/11 20/23/20 18/22/19
f 19/21/18 20/23/20 11/13/11
