# Blender v2.90.1 OBJ File: ''
# www.blender.org
mtllib L4l.mtl
o Spiders.007
v -2.584000 2.299001 -2.226000
v -2.509000 2.343000 -2.241999
v -2.500000 2.382000 -2.302000
v -2.539000 2.379000 -2.349000
v -2.623000 2.313000 -2.325999
v -2.024000 0.229000 -2.594000
v -1.978000 0.251000 -2.606000
v -1.976000 0.268000 -2.649000
v -2.011000 0.262000 -2.673000
v -2.050000 0.234000 -2.646000
v -2.003000 0.190000 -2.617000
v -1.967000 0.208000 -2.628000
v -1.974000 0.221000 -2.661000
v -1.991000 0.217000 -2.667000
v -2.018000 0.199000 -2.655000
v -1.963000 0.203000 -2.666000
v -1.983000 0.186000 -2.688000
v -1.954000 0.172000 -2.623000
v -2.003000 0.146000 -2.669000
v -1.983000 0.135000 -2.633000
v -1.734000 -0.004000 -2.820000
vt 0.651900 0.940200
vt 0.935200 0.928300
vt 0.650900 0.929100
vt 0.934800 0.923600
vt 0.649900 0.919400
vt 0.649700 0.912400
vt 0.934900 0.919000
vt 0.935400 0.941100
vt 0.935200 0.934400
vt 0.935800 0.947900
vt 0.652200 0.953600
vt 0.650200 0.969000
vt 0.941700 0.934200
vt 0.940900 0.922800
vt 0.942100 0.940500
vt 0.943000 0.945700
vt 0.947600 0.922800
vt 0.940700 0.920100
vt 0.941500 0.928100
vt 0.952200 0.944800
vt 0.949500 0.938600
vt 0.947800 0.928700
vt 0.948800 0.933800
vt 0.992600 0.922800
vt 0.948200 0.919000
vn -0.4250 -0.3081 0.8512
vn 0.7985 -0.0174 0.6017
vn 0.7695 0.0499 0.6367
vn 0.8789 0.1901 -0.4376
vn 0.9510 0.2126 -0.2246
vn 0.3796 0.2087 -0.9013
vn -0.0931 -0.0186 -0.9955
vn -0.8586 -0.4467 -0.2515
vn -0.3394 -0.4336 0.8347
vn -0.7978 -0.1714 -0.5780
vn -0.4377 -0.4356 0.7866
vn 0.6665 0.3583 -0.6538
vn -0.8328 -0.2622 -0.4875
vn -0.1042 0.2388 -0.9655
vn 0.6562 0.6678 -0.3513
vn 0.8847 0.0997 0.4554
vn -0.3246 0.3391 -0.8830
vn -0.8158 -0.5012 -0.2887
vn 0.5674 0.0606 0.8212
vn -0.3658 -0.6882 0.6266
vn 0.7135 -0.5048 -0.4859
usemtl wire_143224087
s 1
f 1/1/1 7/2/2 2/3/3
f 2/3/3 8/4/4 3/5/5
f 4/6/6 8/4/4 9/7/7
f 1/1/1 10/8/8 6/9/9
f 9/10/7 5/11/10 4/12/6
f 11/13/11 7/2/2 6/9/9
f 7/2/2 13/14/12 8/4/4
f 13/14/12 9/7/7 8/4/4
f 15/15/13 6/9/9 10/8/8
f 14/16/14 10/8/8 9/10/7
f 16/17/15 14/18/14 13/14/12
f 12/19/16 16/17/15 13/14/12
f 15/15/13 17/20/17 19/21/18
f 11/13/11 18/22/19 12/19/16
f 19/21/18 11/13/11 15/15/13
f 20/23/20 21/24/21 18/22/19
f 21/24/21 20/23/20 19/21/18
f 18/22/19 21/24/21 16/17/15
f 21/24/21 17/25/17 16/17/15
f 21/24/21 19/21/18 17/20/17
f 1/1/1 6/9/9 7/2/2
f 2/3/3 7/2/2 8/4/4
f 4/6/6 3/5/5 8/4/4
f 1/1/1 5/11/10 10/8/8
f 9/10/7 10/8/8 5/11/10
f 11/13/11 12/19/16 7/2/2
f 7/2/2 12/19/16 13/14/12
f 13/14/12 14/18/14 9/7/7
f 15/15/13 11/13/11 6/9/9
f 14/16/14 15/15/13 10/8/8
f 16/17/15 17/25/17 14/18/14
f 12/19/16 18/22/19 16/17/15
f 15/15/13 14/16/14 17/20/17
f 11/13/11 20/23/20 18/22/19
f 19/21/18 20/23/20 11/13/11
