# Blender v2.90.1 OBJ File: ''
# www.blender.org
mtllib R1l.mtl
o Spiders.010
v -8.767000 2.274000 3.026000
v -8.739000 2.230000 2.955001
v -8.828000 2.312999 3.025001
v -8.868000 2.309999 2.978001
v -8.830000 2.243999 2.899001
v -9.198000 0.230999 3.443000
v -9.219000 0.252999 3.486000
v -9.262000 0.269999 3.480000
v -9.279000 0.264999 3.442000
v -9.245000 0.236999 3.408000
v -9.242000 0.209999 3.493000
v -9.225000 0.192999 3.459000
v -9.273000 0.222999 3.480000
v -9.276000 0.219999 3.463000
v -9.260000 0.201999 3.438000
v -9.297999 0.188999 3.467000
v -9.280000 0.204999 3.490000
v -9.239000 0.173999 3.506000
v -9.276000 0.147999 3.450000
v -9.243999 0.136999 3.476000
v -9.472000 -0.002001 3.689000
vt 0.651900 0.940200
vt 0.935200 0.928300
vt 0.935200 0.934400
vt 0.934800 0.923600
vt 0.650900 0.929100
vt 0.649900 0.919400
vt 0.649700 0.912400
vt 0.934900 0.919000
vt 0.935400 0.941100
vt 0.652200 0.953600
vt 0.935800 0.947900
vt 0.650200 0.969000
vt 0.941700 0.934200
vt 0.940900 0.922800
vt 0.940700 0.920100
vt 0.942100 0.940500
vt 0.943000 0.945700
vt 0.947600 0.922800
vt 0.941500 0.928100
vt 0.952200 0.944800
vt 0.949500 0.938600
vt 0.947800 0.928700
vt 0.948800 0.933800
vt 0.992600 0.922800
vt 0.948200 0.919000
vn 0.9518 -0.2452 -0.1844
vn 0.4465 -0.0126 0.8947
vn 0.8795 -0.4504 -0.1538
vn -0.5386 0.1713 0.8250
vn 0.5190 0.0605 0.8526
vn -0.4789 0.2669 0.8363
vn -0.9726 0.1949 0.1266
vn -0.9670 -0.0287 -0.2531
vn -0.1048 -0.4524 -0.8857
vn -0.4497 -0.1572 -0.8792
vn 0.8705 -0.4042 -0.2808
vn -0.7732 0.3177 0.5488
vn -0.9289 0.2692 -0.2543
vn -0.2911 -0.1999 -0.9356
vn -0.4545 0.6732 0.5833
vn 0.3816 0.0801 0.9209
vn -0.8217 0.3491 -0.4505
vn -0.1420 -0.5014 -0.8535
vn 0.7110 0.0642 0.7003
vn 0.6623 -0.7075 -0.2466
vn -0.6028 -0.5046 0.6180
usemtl wire_143224087
s 1
f 2/1/1 7/2/2 6/3/3
f 8/4/4 1/5/5 3/6/6
f 8/4/4 4/7/7 9/8/8
f 10/9/9 2/1/1 6/3/3
f 5/10/10 9/11/8 4/12/7
f 7/2/2 12/13/11 6/3/3
f 13/14/12 7/2/2 8/4/4
f 14/15/13 8/4/4 9/8/8
f 6/3/3 15/16/14 10/9/9
f 10/9/9 14/17/13 9/11/8
f 14/15/13 17/18/15 13/14/12
f 17/18/15 11/19/16 13/14/12
f 16/20/17 15/16/14 19/21/18
f 18/22/19 12/13/11 11/19/16
f 12/13/11 19/21/18 15/16/14
f 20/23/20 18/22/19 21/24/21
f 21/24/21 19/21/18 20/23/20
f 18/22/19 17/18/15 21/24/21
f 21/24/21 17/18/15 16/25/17
f 21/24/21 16/20/17 19/21/18
f 2/1/1 1/5/5 7/2/2
f 8/4/4 7/2/2 1/5/5
f 8/4/4 3/6/6 4/7/7
f 10/9/9 5/10/10 2/1/1
f 5/10/10 10/9/9 9/11/8
f 7/2/2 11/19/16 12/13/11
f 13/14/12 11/19/16 7/2/2
f 14/15/13 13/14/12 8/4/4
f 6/3/3 12/13/11 15/16/14
f 10/9/9 15/16/14 14/17/13
f 14/15/13 16/25/17 17/18/15
f 17/18/15 18/22/19 11/19/16
f 16/20/17 14/17/13 15/16/14
f 18/22/19 20/23/20 12/13/11
f 12/13/11 20/23/20 19/21/18
