# Blender v2.90.1 OBJ File: ''
# www.blender.org
mtllib R1u.mtl
o Spiders.009
v -6.553000 0.857000 0.774000
v -6.669000 0.823000 0.771000
v -6.525000 0.906000 0.640000
v -6.616000 0.896000 0.576000
v -6.732000 0.854000 0.641000
v -7.253000 2.707000 1.409001
v -7.166000 2.729000 1.403001
v -7.152000 2.775000 1.299000
v -7.231000 2.767000 1.250000
v -7.296000 2.725000 1.287001
v -7.194000 2.777000 1.408000
v -7.226000 2.724000 1.379000
v -7.237000 2.845000 1.374001
v -7.281000 2.824000 1.330001
v -7.289000 2.773000 1.309000
v -7.234000 2.775000 1.468000
v -7.275000 2.708000 1.431000
v -7.273000 2.878000 1.428000
v -7.349000 2.844000 1.353000
v -7.349000 2.763000 1.339000
v -8.696000 2.316000 2.958000
v -8.731000 2.240999 2.937001
v -8.751000 2.387000 2.919001
v -8.787001 2.374000 2.879000
v -8.802000 2.266999 2.871000
v -8.744000 2.320999 2.998001
v -8.738000 2.279000 2.939001
v -8.799000 2.337000 2.994000
v -8.830000 2.332999 2.954000
v -8.808001 2.286999 2.892001
v -8.767000 2.274000 3.026000
v -8.739000 2.230000 2.955001
v -8.828000 2.312999 3.025001
v -8.868000 2.309999 2.978001
v -8.830000 2.243999 2.899001
vt 0.067300 0.949800
vt 0.341100 0.931700
vt 0.342200 0.942700
vt 0.066700 0.915800
vt 0.341700 0.918800
vt 0.342200 0.907100
vt 0.341300 0.958400
vt 0.342900 0.969200
vt 0.069200 0.968700
vt 0.349800 0.942900
vt 0.349100 0.932000
vt 0.349000 0.918800
vt 0.348900 0.908800
vt 0.349000 0.958500
vt 0.358900 0.931800
vt 0.358600 0.918100
vt 0.358200 0.959600
vt 0.349200 0.966800
vt 0.636900 0.930000
vt 0.360200 0.943700
vt 0.636900 0.917800
vt 0.358100 0.905600
vt 0.637100 0.910600
vt 0.639100 0.952600
vt 0.637400 0.966800
vt 0.358500 0.970400
vt 0.645000 0.940400
vt 0.643100 0.929600
vt 0.643500 0.921000
vt 0.643600 0.913300
vt 0.638600 0.940100
vt 0.645300 0.953000
vt 0.650900 0.929100
vt 0.649900 0.919400
vt 0.652200 0.953600
vt 0.643700 0.964400
vt 0.067200 0.933500
vt 0.066300 0.901800
vt 0.067700 0.986800
vt 0.651900 0.940200
vt 0.649700 0.912400
vt 0.650200 0.969000
vn -0.4813 -0.4033 0.7783
vn 0.6523 0.0272 0.7574
vn -0.5252 0.3820 0.7604
vn 0.8643 0.4706 -0.1777
vn 0.7353 0.6237 -0.2651
vn -0.1186 0.5426 -0.8316
vn -0.9590 -0.0998 -0.2654
vn -0.9299 -0.1262 -0.3456
vn 0.0801 -0.3393 0.9373
vn 0.8286 0.2105 0.5188
vn 0.5073 0.8475 -0.1559
vn -0.1199 0.7189 -0.6847
vn -0.7677 -0.0231 -0.6404
vn 0.8119 -0.0619 0.5805
vn 0.3375 0.9361 0.0986
vn -0.4651 -0.3909 -0.7942
vn 0.5086 0.0602 0.8589
vn 0.3268 -0.9446 -0.0314
vn -0.0637 0.9217 0.3826
vn -0.3893 0.6773 -0.6243
vn -0.7128 0.6355 -0.2966
vn -0.6810 -0.6907 -0.2432
vn 0.9857 -0.1496 0.0774
vn 0.5913 0.3978 0.7015
vn -0.1148 0.8176 0.5642
vn -0.6887 0.7101 -0.1466
vn -0.0469 -0.8808 0.4712
vn 0.5381 0.7839 -0.3098
vn 0.6723 0.2585 0.6936
vn 0.0152 0.8228 0.5682
vn -0.1180 0.0195 -0.9928
vn 0.6740 0.0000 0.7387
vn -0.0507 0.3576 -0.9325
vn 0.9145 -0.1208 -0.3863
vn -0.5631 0.8122 -0.1525
usemtl wire_143224087
s 1
f 2/1/1 7/2/2 6/3/3
f 7/2/2 3/4/4 8/5/5
f 3/4/4 9/6/6 8/5/5
f 10/7/7 2/1/1 6/3/3
f 9/8/6 5/9/8 10/7/7
f 12/10/9 7/2/2 11/11/10
f 11/11/10 8/5/5 13/12/11
f 14/13/12 8/5/5 9/6/6
f 12/10/9 10/7/7 6/3/3
f 15/14/13 9/8/6 10/7/7
f 16/15/14 12/10/9 11/11/10
f 13/12/11 16/15/14 11/11/10
f 14/13/12 18/16/15 13/12/11
f 12/10/9 20/17/16 15/14/13
f 20/17/16 14/18/12 15/14/13
f 21/19/17 17/20/18 16/15/14
f 16/15/14 23/21/19 21/19/17
f 23/21/19 19/22/20 24/23/21
f 17/20/18 25/24/22 20/17/16
f 20/17/16 24/25/21 19/26/20
f 27/27/23 21/19/17 26/28/24
f 26/28/24 23/21/19 28/29/25
f 29/30/26 23/21/19 24/23/21
f 27/27/23 25/24/22 22/31/27
f 30/32/28 24/25/21 25/24/22
f 31/33/29 27/27/23 26/28/24
f 28/29/25 31/33/29 26/28/24
f 29/30/26 33/34/30 28/29/25
f 27/27/23 35/35/31 30/32/28
f 35/35/31 29/36/26 30/32/28
f 2/1/1 1/37/32 7/2/2
f 7/2/2 1/37/32 3/4/4
f 3/4/4 4/38/33 9/6/6
f 10/7/7 5/9/8 2/1/1
f 9/8/6 4/39/33 5/9/8
f 12/10/9 6/3/3 7/2/2
f 11/11/10 7/2/2 8/5/5
f 14/13/12 13/12/11 8/5/5
f 12/10/9 15/14/13 10/7/7
f 15/14/13 14/18/12 9/8/6
f 16/15/14 17/20/18 12/10/9
f 13/12/11 18/16/15 16/15/14
f 14/13/12 19/22/20 18/16/15
f 12/10/9 17/20/18 20/17/16
f 20/17/16 19/26/20 14/18/12
f 21/19/17 22/31/27 17/20/18
f 16/15/14 18/16/15 23/21/19
f 23/21/19 18/16/15 19/22/20
f 17/20/18 22/31/27 25/24/22
f 20/17/16 25/24/22 24/25/21
f 27/27/23 22/31/27 21/19/17
f 26/28/24 21/19/17 23/21/19
f 29/30/26 28/29/25 23/21/19
f 27/27/23 30/32/28 25/24/22
f 30/32/28 29/36/26 24/25/21
f 31/33/29 32/40/34 27/27/23
f 28/29/25 33/34/30 31/33/29
f 29/30/26 34/41/35 33/34/30
f 27/27/23 32/40/34 35/35/31
f 35/35/31 34/42/35 29/36/26
