# Blender v2.90.1 OBJ File: ''
# www.blender.org
mtllib R2u.mtl
o Spiders.011
v -6.593000 0.875000 0.373000
v -6.686000 0.841000 0.303000
v -6.493000 0.924000 0.279000
v -6.531000 0.913000 0.174000
v -6.663000 0.872000 0.161000
v -7.531000 2.724000 0.491000
v -7.456000 2.746000 0.536000
v -7.385000 2.793000 0.459000
v -7.421000 2.785000 0.373000
v -7.496000 2.742000 0.366000
v -7.482000 2.794000 0.524000
v -7.491000 2.741000 0.481000
v -7.497000 2.862000 0.471000
v -7.508000 2.841000 0.410001
v -7.503000 2.791000 0.388000
v -7.549000 2.792000 0.550000
v -7.561000 2.725000 0.496000
v -7.557000 2.895000 0.495000
v -7.577000 2.861000 0.390000
v -7.569000 2.781000 0.379000
v -9.601000 2.384000 0.932000
v -9.617001 2.309000 0.895000
v -9.624001 2.454000 0.869000
v -9.630000 2.441000 0.816000
v -9.638000 2.335000 0.801000
v -9.663000 2.389000 0.938000
v -9.624001 2.347000 0.892000
v -9.706000 2.404000 0.902000
v -9.708000 2.400000 0.852000
v -9.655000 2.354000 0.814000
v -9.698000 2.341000 0.947000
v -9.634000 2.298000 0.905000
v -9.748000 2.381000 0.911000
v -9.753000 2.378000 0.850000
v -9.677000 2.312000 0.807000
vt 0.067300 0.949800
vt 0.341100 0.931700
vt 0.342200 0.942700
vt 0.066700 0.915800
vt 0.341700 0.918800
vt 0.342200 0.907100
vt 0.341300 0.958400
vt 0.342900 0.969200
vt 0.069200 0.968700
vt 0.349800 0.942900
vt 0.349100 0.932000
vt 0.349000 0.918800
vt 0.348900 0.908800
vt 0.349000 0.958500
vt 0.358900 0.931800
vt 0.358600 0.918100
vt 0.358200 0.959600
vt 0.349200 0.966800
vt 0.636900 0.930000
vt 0.360200 0.943700
vt 0.636900 0.917800
vt 0.358100 0.905600
vt 0.637100 0.910600
vt 0.639100 0.952600
vt 0.637400 0.966800
vt 0.358500 0.970400
vt 0.645000 0.940400
vt 0.643100 0.929600
vt 0.643500 0.921000
vt 0.643600 0.913300
vt 0.638600 0.940100
vt 0.645300 0.953000
vt 0.650900 0.929100
vt 0.649900 0.919400
vt 0.652200 0.953600
vt 0.643700 0.964400
vt 0.067200 0.933500
vt 0.066300 0.901800
vt 0.067700 0.986800
vt 0.651900 0.940200
vt 0.649700 0.912400
vt 0.650200 0.969000
vn -0.8398 -0.4038 0.3629
vn 0.1005 0.0255 0.9946
vn -0.8653 0.3835 0.3229
vn 0.8521 0.4332 0.2937
vn 0.7540 0.6234 0.2070
vn 0.3808 0.5441 -0.7476
vn -0.6332 -0.1032 -0.7671
vn -0.5638 -0.1380 -0.8143
vn -0.4970 -0.3279 0.8034
vn 0.3785 0.2058 0.9025
vn 0.5059 0.8473 0.1619
vn 0.2904 0.7178 -0.6328
vn -0.2601 -0.0173 -0.9654
vn 0.3316 -0.0694 0.9409
vn 0.2328 0.9323 0.2768
vn 0.0710 -0.3943 -0.9162
vn -0.0737 0.0759 0.9944
vn 0.2712 -0.9491 0.1605
vn -0.2611 0.9258 0.2732
vn 0.0441 0.6748 -0.7366
vn -0.4066 0.6400 -0.6520
vn -0.4176 -0.6915 -0.5895
vn 0.7556 -0.1645 0.6340
vn 0.0791 0.3944 0.9155
vn -0.4184 0.8174 0.3961
vn -0.4708 0.7193 -0.5109
vn -0.3100 -0.8782 0.3641
vn 0.6256 0.7779 0.0596
vn 0.1524 0.2552 0.9548
vn -0.2934 0.8311 0.4724
vn 0.4648 0.0221 -0.8851
vn 0.0725 -0.0507 0.9961
vn 0.5076 0.3475 -0.7884
vn 0.9706 -0.1153 0.2114
vn -0.3648 0.8182 -0.4445
usemtl wire_143224087
s 1
f 2/1/1 7/2/2 6/3/3
f 7/2/2 3/4/4 8/5/5
f 3/4/4 9/6/6 8/5/5
f 10/7/7 2/1/1 6/3/3
f 9/8/6 5/9/8 10/7/7
f 12/10/9 7/2/2 11/11/10
f 11/11/10 8/5/5 13/12/11
f 14/13/12 8/5/5 9/6/6
f 12/10/9 10/7/7 6/3/3
f 15/14/13 9/8/6 10/7/7
f 16/15/14 12/10/9 11/11/10
f 13/12/11 16/15/14 11/11/10
f 14/13/12 18/16/15 13/12/11
f 12/10/9 20/17/16 15/14/13
f 20/17/16 14/18/12 15/14/13
f 21/19/17 17/20/18 16/15/14
f 16/15/14 23/21/19 21/19/17
f 23/21/19 19/22/20 24/23/21
f 17/20/18 25/24/22 20/17/16
f 20/17/16 24/25/21 19/26/20
f 27/27/23 21/19/17 26/28/24
f 26/28/24 23/21/19 28/29/25
f 29/30/26 23/21/19 24/23/21
f 27/27/23 25/24/22 22/31/27
f 30/32/28 24/25/21 25/24/22
f 31/33/29 27/27/23 26/28/24
f 28/29/25 31/33/29 26/28/24
f 29/30/26 33/34/30 28/29/25
f 27/27/23 35/35/31 30/32/28
f 35/35/31 29/36/26 30/32/28
f 2/1/1 1/37/32 7/2/2
f 7/2/2 1/37/32 3/4/4
f 3/4/4 4/38/33 9/6/6
f 10/7/7 5/9/8 2/1/1
f 9/8/6 4/39/33 5/9/8
f 12/10/9 6/3/3 7/2/2
f 11/11/10 7/2/2 8/5/5
f 14/13/12 13/12/11 8/5/5
f 12/10/9 15/14/13 10/7/7
f 15/14/13 14/18/12 9/8/6
f 16/15/14 17/20/18 12/10/9
f 13/12/11 18/16/15 16/15/14
f 14/13/12 19/22/20 18/16/15
f 12/10/9 17/20/18 20/17/16
f 20/17/16 19/26/20 14/18/12
f 21/19/17 22/31/27 17/20/18
f 16/15/14 18/16/15 23/21/19
f 23/21/19 18/16/15 19/22/20
f 17/20/18 22/31/27 25/24/22
f 20/17/16 25/24/22 24/25/21
f 27/27/23 22/31/27 21/19/17
f 26/28/24 21/19/17 23/21/19
f 29/30/26 28/29/25 23/21/19
f 27/27/23 30/32/28 25/24/22
f 30/32/28 29/36/26 24/25/21
f 31/33/29 32/40/34 27/27/23
f 28/29/25 33/34/30 31/33/29
f 29/30/26 34/41/35 33/34/30
f 27/27/23 32/40/34 35/35/31
f 35/35/31 34/42/35 29/36/26
