# Blender v2.90.1 OBJ File: ''
# www.blender.org
mtllib R3l.mtl
o Spiders.013
v -9.613000 2.340000 -0.807000
v -9.538000 2.296000 -0.818000
v -9.643000 2.379000 -0.860000
v -9.622000 2.376000 -0.918000
v -9.535000 2.310000 -0.925000
v -10.190001 0.226000 -0.972000
v -10.237000 0.248000 -0.968000
v -10.254001 0.265000 -1.008000
v -10.229000 0.259000 -1.042000
v -10.183001 0.231000 -1.029000
v -10.255001 0.205000 -0.984000
v -10.217000 0.187000 -0.986000
v -10.260000 0.218000 -1.017000
v -10.246000 0.214000 -1.029000
v -10.216000 0.196000 -1.027000
v -10.261001 0.183000 -1.046000
v -10.271000 0.200000 -1.018000
v -10.264999 0.169000 -0.975000
v -10.235000 0.143000 -1.035000
v -10.242000 0.132000 -0.994000
v -10.540000 -0.007000 -1.085000
vt 0.651900 0.940200
vt 0.935200 0.928300
vt 0.935200 0.934400
vt 0.934800 0.923600
vt 0.650900 0.929100
vt 0.649900 0.919400
vt 0.649700 0.912400
vt 0.934900 0.919000
vt 0.935400 0.941100
vt 0.652200 0.953600
vt 0.935800 0.947900
vt 0.650200 0.969000
vt 0.941700 0.934200
vt 0.940900 0.922800
vt 0.940700 0.920100
vt 0.942100 0.940500
vt 0.943000 0.945700
vt 0.947600 0.922800
vt 0.941500 0.928100
vt 0.952200 0.944800
vt 0.949500 0.938600
vt 0.947800 0.928700
vt 0.948800 0.933800
vt 0.992600 0.922800
vt 0.948200 0.919000
vn 0.6329 -0.2331 0.7384
vn -0.5473 -0.0156 0.8368
vn 0.5793 -0.4443 0.6834
vn -0.9844 0.1689 -0.0497
vn -0.4824 0.0621 0.8738
vn -0.9660 0.2586 -0.0002
vn -0.5983 0.1884 -0.7788
vn -0.2597 -0.0314 -0.9652
vn 0.7196 -0.4509 -0.5281
vn 0.5331 -0.1509 -0.8325
vn 0.6784 -0.4050 0.6130
vn -0.8704 0.2931 -0.3955
vn -0.2419 0.2766 -0.9300
vn 0.6648 -0.2024 -0.7190
vn -0.7353 0.6699 -0.1030
vn -0.5984 0.0768 0.7975
vn -0.0179 0.3494 -0.9368
vn 0.6679 -0.5016 -0.5498
vn -0.2533 0.0626 0.9654
vn 0.5416 -0.7039 0.4596
vn -0.8368 -0.5044 -0.2130
usemtl wire_143224087
s 1
f 2/1/1 7/2/2 6/3/3
f 8/4/4 1/5/5 3/6/6
f 8/4/4 4/7/7 9/8/8
f 10/9/9 2/1/1 6/3/3
f 5/10/10 9/11/8 4/12/7
f 7/2/2 12/13/11 6/3/3
f 13/14/12 7/2/2 8/4/4
f 14/15/13 8/4/4 9/8/8
f 6/3/3 15/16/14 10/9/9
f 10/9/9 14/17/13 9/11/8
f 14/15/13 17/18/15 13/14/12
f 17/18/15 11/19/16 13/14/12
f 16/20/17 15/16/14 19/21/18
f 18/22/19 12/13/11 11/19/16
f 12/13/11 19/21/18 15/16/14
f 20/23/20 18/22/19 21/24/21
f 21/24/21 19/21/18 20/23/20
f 18/22/19 17/18/15 21/24/21
f 21/24/21 17/18/15 16/25/17
f 21/24/21 16/20/17 19/21/18
f 2/1/1 1/5/5 7/2/2
f 8/4/4 7/2/2 1/5/5
f 8/4/4 3/6/6 4/7/7
f 10/9/9 5/10/10 2/1/1
f 5/10/10 10/9/9 9/11/8
f 7/2/2 11/19/16 12/13/11
f 13/14/12 11/19/16 7/2/2
f 14/15/13 13/14/12 8/4/4
f 6/3/3 12/13/11 15/16/14
f 10/9/9 15/16/14 14/17/13
f 14/15/13 16/25/17 17/18/15
f 17/18/15 18/22/19 11/19/16
f 16/20/17 14/17/13 15/16/14
f 18/22/19 20/23/20 12/13/11
f 12/13/11 20/23/20 19/21/18
