# Blender v2.90.1 OBJ File: ''
# www.blender.org
mtllib R3u.mtl
o Spiders.016
v -6.556000 0.899000 -0.014000
v -6.611000 0.865000 -0.117000
v -6.426000 0.948000 -0.058000
v -6.416000 0.938000 -0.169000
v -6.530000 0.896000 -0.237000
v -7.456000 2.749000 -0.304000
v -7.407000 2.770000 -0.231000
v -7.311000 2.817000 -0.271000
v -7.307000 2.809000 -0.364000
v -7.372000 2.767000 -0.402000
v -7.426000 2.819000 -0.253000
v -7.416000 2.766000 -0.296000
v -7.417000 2.887000 -0.307000
v -7.401000 2.865000 -0.367000
v -7.387000 2.815000 -0.385000
v -7.498000 2.816000 -0.258000
v -7.486000 2.749000 -0.312000
v -7.482000 2.920000 -0.311000
v -7.455000 2.886000 -0.415000
v -7.443000 2.805000 -0.422000
v -9.519000 2.382000 -0.779000
v -9.517000 2.307000 -0.820000
v -9.513000 2.453000 -0.846000
v -9.496000 2.440000 -0.897000
v -9.497000 2.333000 -0.914000
v -9.577000 2.387000 -0.800000
v -9.523000 2.345000 -0.825000
v -9.601000 2.403000 -0.850000
v -9.582000 2.399000 -0.897000
v -9.518000 2.353000 -0.909000
v -9.613000 2.340000 -0.807000
v -9.538000 2.296000 -0.818000
v -9.643000 2.379000 -0.860000
v -9.622000 2.376000 -0.918000
v -9.535000 2.310000 -0.925000
vt 0.067300 0.949800
vt 0.341100 0.931700
vt 0.342200 0.942700
vt 0.066700 0.915800
vt 0.341700 0.918800
vt 0.342200 0.907100
vt 0.341300 0.958400
vt 0.342900 0.969200
vt 0.069200 0.968700
vt 0.349800 0.942900
vt 0.349100 0.932000
vt 0.349000 0.918800
vt 0.348900 0.908800
vt 0.349000 0.958500
vt 0.358900 0.931800
vt 0.358600 0.918100
vt 0.358200 0.959600
vt 0.349200 0.966800
vt 0.636900 0.930000
vt 0.360200 0.943700
vt 0.636900 0.917800
vt 0.358100 0.905600
vt 0.637100 0.910600
vt 0.639100 0.952600
vt 0.637400 0.966800
vt 0.358500 0.970400
vt 0.645000 0.940400
vt 0.643100 0.929600
vt 0.643500 0.921000
vt 0.643600 0.913300
vt 0.638600 0.940100
vt 0.645300 0.953000
vt 0.650900 0.929100
vt 0.649900 0.919400
vt 0.652200 0.953600
vt 0.643700 0.964400
vt 0.067200 0.933500
vt 0.066300 0.901800
vt 0.067700 0.986800
vt 0.651900 0.940200
vt 0.649700 0.912400
vt 0.650200 0.969000
vn -0.9145 -0.4039 -0.0246
vn -0.3311 0.0293 0.9432
vn -0.9206 0.3835 -0.0741
vn 0.6059 0.4571 0.6511
vn 0.5954 0.6235 0.5068
vn 0.6605 0.5452 -0.5162
vn -0.2504 -0.1038 -0.9626
vn -0.1701 -0.1202 -0.9781
vn -0.7589 -0.3459 0.5518
vn -0.0388 0.2102 0.9769
vn 0.3891 0.8498 0.3556
vn 0.5334 0.7203 -0.4435
vn 0.1794 -0.0200 -0.9836
vn -0.1019 -0.0677 0.9925
vn 0.0861 0.9337 0.3475
vn 0.4531 -0.3926 -0.8004
vn -0.4915 0.0623 0.8687
vn 0.1886 -0.9467 0.2611
vn -0.3577 0.9239 0.1357
vn 0.3551 0.6750 -0.6468
vn -0.0958 0.6371 -0.7648
vn -0.1306 -0.6881 -0.7138
vn 0.4283 -0.1841 0.8847
vn -0.3117 0.3957 0.8639
vn -0.5463 0.8172 0.1837
vn -0.2180 0.7120 -0.6675
vn -0.4210 -0.8863 0.1931
vn 0.5301 0.7855 0.3194
vn -0.2702 0.2472 0.9305
vn -0.4809 0.8243 0.2988
vn 0.7995 0.0228 -0.6002
vn -0.3521 -0.0511 0.9346
vn 0.7932 0.3501 -0.4983
vn 0.7914 -0.1311 0.5971
vn -0.1505 0.8129 -0.5626
usemtl wire_143224087
s 1
f 2/1/1 7/2/2 6/3/3
f 7/2/2 3/4/4 8/5/5
f 3/4/4 9/6/6 8/5/5
f 10/7/7 2/1/1 6/3/3
f 9/8/6 5/9/8 10/7/7
f 12/10/9 7/2/2 11/11/10
f 11/11/10 8/5/5 13/12/11
f 14/13/12 8/5/5 9/6/6
f 12/10/9 10/7/7 6/3/3
f 15/14/13 9/8/6 10/7/7
f 16/15/14 12/10/9 11/11/10
f 13/12/11 16/15/14 11/11/10
f 14/13/12 18/16/15 13/12/11
f 12/10/9 20/17/16 15/14/13
f 20/17/16 14/18/12 15/14/13
f 21/19/17 17/20/18 16/15/14
f 16/15/14 23/21/19 21/19/17
f 23/21/19 19/22/20 24/23/21
f 17/20/18 25/24/22 20/17/16
f 20/17/16 24/25/21 19/26/20
f 27/27/23 21/19/17 26/28/24
f 26/28/24 23/21/19 28/29/25
f 29/30/26 23/21/19 24/23/21
f 27/27/23 25/24/22 22/31/27
f 30/32/28 24/25/21 25/24/22
f 31/33/29 27/27/23 26/28/24
f 28/29/25 31/33/29 26/28/24
f 29/30/26 33/34/30 28/29/25
f 27/27/23 35/35/31 30/32/28
f 35/35/31 29/36/26 30/32/28
f 2/1/1 1/37/32 7/2/2
f 7/2/2 1/37/32 3/4/4
f 3/4/4 4/38/33 9/6/6
f 10/7/7 5/9/8 2/1/1
f 9/8/6 4/39/33 5/9/8
f 12/10/9 6/3/3 7/2/2
f 11/11/10 7/2/2 8/5/5
f 14/13/12 13/12/11 8/5/5
f 12/10/9 15/14/13 10/7/7
f 15/14/13 14/18/12 9/8/6
f 16/15/14 17/20/18 12/10/9
f 13/12/11 18/16/15 16/15/14
f 14/13/12 19/22/20 18/16/15
f 12/10/9 17/20/18 20/17/16
f 20/17/16 19/26/20 14/18/12
f 21/19/17 22/31/27 17/20/18
f 16/15/14 18/16/15 23/21/19
f 23/21/19 18/16/15 19/22/20
f 17/20/18 22/31/27 25/24/22
f 20/17/16 25/24/22 24/25/21
f 27/27/23 22/31/27 21/19/17
f 26/28/24 21/19/17 23/21/19
f 29/30/26 28/29/25 23/21/19
f 27/27/23 30/32/28 25/24/22
f 30/32/28 29/36/26 24/25/21
f 31/33/29 32/40/34 27/27/23
f 28/29/25 33/34/30 31/33/29
f 29/30/26 34/41/35 33/34/30
f 27/27/23 32/40/34 35/35/31
f 35/35/31 34/42/35 29/36/26
